<?xml version="1.0" encoding="UTF-8"?><svg id="Layer_2" xmlns="http://www.w3.org/2000/svg" viewBox="0 0 400.59 469.33"><defs><style>.cls-1{fill:#29354d;}.cls-2{fill:#fff;}.cls-3{fill:#35496a;}.cls-4{fill:#d6d6d6;}.cls-5{fill:#171d37;}.cls-6{fill:#567aae;}.cls-7{fill:#b34051;}</style></defs><g id="Layer_1-2"><path class="cls-5" d="m200.3,0C116.96,78.67,1.63,74.67,1.63,74.67c-22.67,292,198.67,394.67,198.67,394.67,0,0,221.33-102.67,198.67-394.67C398.96,74.67,283.63,78.67,200.3,0Z"/><path class="cls-2" d="m169.46,159.33v291.73c18.52,12.56,30.83,18.27,30.83,18.27,0,0,12.31-5.71,30.83-18.27V159.33s-.67-64.33-30.83-105.83c-30.17,41.5-30.83,105.83-30.83,105.83Z"/><path class="cls-6" d="m400.53,123.05l-172.4,149.45v23l166.01-101.27c3.78-22.16,6.03-45.86,6.39-71.18Z"/><path class="cls-4" d="m398.96,74.67s-2.54.09-7.12-.02l-167.71,184.85v20.5l175.94-141.36c.93-20.24.63-41.54-1.11-63.97Z"/><path class="cls-7" d="m398.96,74.67s-23.47.81-56.88-5.51l-124.46,174.85-5,32,186.58-197.93c-.08-1.13-.15-2.26-.24-3.4Z"/><path class="cls-3" d="m231.96,386.83h-.83v-227.5s-.67-64.33-30.83-105.83v333.33h-31.67c-17.67,0-18,7.67-18,7.67v10.5h99.33v-10.5s-.33-7.67-18-7.67Z"/><path class="cls-3" d="m169.46,421.61c3.05-.13,10.84-.66,30.83-2.49,17.61-1.61,26.43-5.93,30.83-9.59v-7.71c-2.73,1.55-6.34,3.51-10.88,5.8-9.76,4.93-41.01,6.96-50.79,7.48v6.51Z"/><path class="cls-3" d="m169.46,452.49c3.05-.13,10.84-.66,30.83-2.49,17.61-1.61,26.43-5.93,30.83-9.59v-7.71c-2.73,1.55-6.34,3.51-10.88,5.8-9.76,4.93-41.01,6.96-50.79,7.48v6.51Z"/><path class="cls-3" d="m169.46,437.74c3.05-.13,10.84-.66,30.83-2.49,17.61-1.61,26.43-5.93,30.83-9.59v-7.71c-2.73,1.55-6.34,3.51-10.88,5.8-9.76,4.93-41.01,6.96-50.79,7.48v6.51Z"/><polygon class="cls-1" points="175.3 282 200.3 177.33 197.96 254.33 221.33 240.94 200.3 327 200.3 267.88 175.3 282"/><polygon class="cls-2" points="199.34 251.88 200.3 177.33 197.96 254.33 221.33 240.94 200.3 327 225.21 235.92 199.34 251.88"/><path class="cls-2" d="m39.97,291.64c.81-10.83,5.24-42.26,21.56-36.87,11.88,5.4,17.34,29.95,20.03,41.77,0,0,.76,3.81.76,3.81.76,5.42,3,7.22,6.25,1.71,1.81-3.19,2.86-6.77,3.76-10.36,1.07-4.2,2.02-10.65,2.71-15.01,2.26-14.79,4.52-31.04,6.85-45.74,1.61-10.16,3.27-20.32,5.28-30.46,2.01-8.91,3.25-19.14,10.29-25.83,13.11-10.08,14.69,20.79,15.38,28.09.8,10.29,1.35,20.54,2.12,30.77,1.61,20.31,3.11,40.87,9.17,60.39,1.47,4.14,3.4,8.24,6.58,11.33,1.29,1.16,2.87,2.51,4.64,2.45,15.54-2.27,19.82-83.27,20.27-98.54,0,0,4,.23,4,.23-.48,5.16-1,10.27-1.55,15.4-2.22,17.82-7.29,70.95-18.9,82.3-7.05,6.2-14.22-7.17-16.74-12.47-4.39-9.48-6.49-19.77-8.06-30.01-3.19-20.38-3.94-41.04-5.51-61.52-.55-5.59-1.69-24.38-6.77-26.41-1.51.1-3.19,2.14-4.16,3.57-4.31,6.17-5.16,13.78-6.85,21.06-1.99,10.02-3.65,20.16-5.25,30.29-1.56,10.12-5.56,35.93-7.12,45.7-1.25,7.5-2.42,15.8-5.31,22.88-1.44,3.27-3.11,6.98-6.72,8.47-3.76,1.41-6.84-2.32-7.34-5.71,0,0-.36-1.92-.36-1.92l-.72-3.76c-1.01-5-2.21-9.96-3.59-14.84-2.13-7.21-4.53-14.53-8.91-20.63-2.71-3.82-7.07-6.75-11.51-4.15-2,1.09-3.58,3.05-4.91,5.1-2.63,4.21-4.26,9.1-5.65,13.99-1.35,4.92-2.33,9.96-3.05,15.02l-.66-.06h0Z"/><path class="cls-5" d="m398.96,74.67S283.63,78.67,200.3,0C116.96,78.67,1.63,74.67,1.63,74.67c-22.67,292,198.67,394.67,198.67,394.67,0,0,221.33-102.67,198.67-394.67Zm-26.72,182.67c-15.25,44.14-38.16,84.55-68.1,120.1-45.02,53.46-92.76,79.87-103.84,85.56-11.08-5.7-58.83-32.11-103.84-85.56-29.94-35.55-52.85-75.96-68.1-120.1C9.78,203.58,2.57,144.06,6.9,80.35c24.31-.33,119.75-6.04,193.4-72.63,73.65,66.59,169.09,72.31,193.4,72.63,4.33,63.71-2.88,123.23-21.45,176.98Z"/></g></svg>